<?xml version="1.0" standalone="no"?>
<!DOCTYPE svg PUBLIC "-//W3C//DTD SVG 20010904//EN"
 "http://www.w3.org/TR/2001/REC-SVG-20010904/DTD/svg10.dtd">
<svg version="1.0" xmlns="http://www.w3.org/2000/svg"
 width="700.000000pt" height="700.000000pt" viewBox="0 0 700.000000 700.000000"
 preserveAspectRatio="xMidYMid meet">
<metadata>
Created by potrace 1.14, written by Peter Selinger 2001-2017
</metadata>
<g transform="translate(0.000000,700.000000) scale(0.100000,-0.100000)"
fill="#000000" stroke="none">
<path d="M1629 6996 c-2 -2 -33 -7 -68 -10 -36 -4 -67 -9 -71 -11 -3 -2 -26
-6 -50 -9 -25 -3 -93 -19 -152 -36 -299 -86 -562 -243 -781 -465 -76 -77 -217
-253 -217 -270 0 -4 -11 -21 -24 -38 -57 -76 -164 -317 -198 -447 -67 -257
-62 -90 -65 -2180 -2 -1804 -1 -1901 17 -2010 24 -148 33 -187 71 -301 35
-107 123 -298 169 -365 16 -25 30 -48 30 -51 0 -8 118 -162 160 -207 58 -64
161 -162 220 -207 30 -24 57 -46 60 -49 18 -20 174 -111 275 -160 131 -63 202
-89 340 -125 199 -52 128 -50 2145 -50 1037 0 1910 3 1940 7 205 27 373 75
548 158 257 122 428 256 632 495 56 65 156 226 211 340 86 178 137 350 168
575 11 77 9 3840 -2 3885 -4 17 -17 75 -28 130 -28 134 -107 367 -140 410 -4
6 -22 39 -40 73 -58 110 -72 131 -168 253 -132 168 -318 327 -506 434 -60 35
-98 53 -240 115 -77 35 -239 77 -380 100 -103 17 -222 19 -1981 19 -1029 0
-1873 -1 -1875 -3z"/>
</g>
</svg>
