<svg width="50" height="51" viewBox="0 0 50 51" fill="none" xmlns="http://www.w3.org/2000/svg">
<circle cx="25" cy="25.8506" r="25" fill="#C2C294"/>
<path d="M40.2956 33.2387C39.8445 33.6305 39.2327 33.8506 38.5948 33.8506C37.9569 33.8506 37.3451 33.6305 36.8939 33.2387L24.9855 22.8947L13.077 33.2387C12.6233 33.6194 12.0156 33.83 11.3848 33.8253C10.7541 33.8205 10.1507 33.6007 9.70462 33.2133C9.25858 32.8258 9.00557 32.3017 9.00009 31.7538C8.99461 31.2059 9.23709 30.678 9.67532 30.2839L23.2846 18.4624C23.7358 18.0707 24.3476 17.8506 24.9855 17.8506C25.6234 17.8506 26.2352 18.0707 26.6863 18.4624L40.2956 30.2839C40.7466 30.6758 41 31.2072 41 31.7613C41 32.3154 40.7466 32.8469 40.2956 33.2387Z" fill="#1F2013"/>
</svg>
