<svg width="50" height="51" viewBox="0 0 50 51" fill="none" xmlns="http://www.w3.org/2000/svg">
<circle cx="25" cy="25.8506" r="25" fill="#C2C294"/>
<path d="M40.2956 36.1587C39.8445 36.6974 39.2327 37 38.5948 37C37.9569 37 37.3451 36.6974 36.8939 36.1587L24.9855 21.9356L13.077 36.1587C12.6233 36.6821 12.0156 36.9717 11.3848 36.9652C10.7541 36.9587 10.1507 36.6565 9.70462 36.1237C9.25858 35.591 9.00557 34.8703 9.00009 34.1169C8.99461 33.3635 9.23709 32.6377 9.67532 32.0958L23.2846 15.8413C23.7358 15.3026 24.3476 15 24.9855 15C25.6234 15 26.2352 15.3026 26.6863 15.8413L40.2956 32.0958C40.7466 32.6346 41 33.3654 41 34.1273C41 34.8892 40.7466 35.6199 40.2956 36.1587Z" fill="#1F2013"/>
</svg>
