<svg width="51" height="52" viewBox="0 0 51 52" fill="none" xmlns="http://www.w3.org/2000/svg">
<circle cx="25.5925" cy="25.7803" r="25.3704" fill="#C2C294"/>
<path d="M34.6889 24.1548L35.3076 23.5804L33.4513 21.8572L30.0509 18.7004L28.1946 16.9772L27.5758 17.5516L26.3383 18.7004L15.4305 28.8263C14.861 29.355 14.4449 30.0107 14.2149 30.7274L12.2764 36.8477C12.1395 37.2747 12.2655 37.7372 12.6105 38.0524C12.9554 38.3676 13.4483 38.4845 13.9082 38.3625L20.4956 36.563C21.2677 36.3495 21.9741 35.9632 22.5436 35.4345L33.4513 25.3087L34.6889 24.1548ZM20.983 32.715L20.4847 33.8689C20.2656 34.0265 20.0192 34.1434 19.7564 34.2196L15.4743 35.3888L16.7337 31.4188C16.8104 31.1697 16.9418 30.9409 17.1116 30.7427L18.3546 30.2801V31.9068C18.3546 32.3541 18.7488 32.7201 19.2307 32.7201H20.983V32.715ZM32.0824 13.363L31.2939 14.1001L30.0564 15.2489L29.4321 15.8233L31.2884 17.5465L34.6889 20.7032L36.5452 22.4265L37.1639 21.8521L38.4015 20.7032L39.1955 19.9662C40.5644 18.6954 40.5644 16.6366 39.1955 15.3658L37.0435 13.363C35.6745 12.0922 33.4568 12.0922 32.0879 13.363H32.0824ZM29.4869 21.9029L21.6017 29.2228C21.2622 29.538 20.7037 29.538 20.3642 29.2228C20.0247 28.9076 20.0247 28.3891 20.3642 28.074L28.2493 20.7541C28.5888 20.4389 29.1474 20.4389 29.4869 20.7541C29.8264 21.0692 29.8264 21.5877 29.4869 21.9029Z" fill="#1F2013"/>
</svg>
