<svg width="42" height="42" viewBox="0 0 42 42" fill="none" xmlns="http://www.w3.org/2000/svg">
<path d="M21.0018 15.75C19.6094 15.75 18.274 16.3031 17.2894 17.2877C16.3049 18.2723 15.7518 19.6076 15.7518 21C15.7518 22.3924 16.3049 23.7277 17.2894 24.7123C18.274 25.6969 19.6094 26.25 21.0018 26.25C22.3941 26.25 23.7295 25.6969 24.7141 24.7123C25.6986 23.7277 26.2518 22.3924 26.2518 21C26.2518 19.6076 25.6986 18.2723 24.7141 17.2877C23.7295 16.3031 22.3941 15.75 21.0018 15.75ZM21.0018 12.25C23.3224 12.25 25.548 13.1719 27.1889 14.8128C28.8299 16.4538 29.7517 18.6794 29.7517 21C29.7517 23.3206 28.8299 25.5462 27.1889 27.1872C25.548 28.8281 23.3224 29.75 21.0018 29.75C18.6811 29.75 16.4555 28.8281 14.8146 27.1872C13.1736 25.5462 12.2517 23.3206 12.2517 21C12.2517 18.6794 13.1736 16.4538 14.8146 14.8128C16.4555 13.1719 18.6811 12.25 21.0018 12.25ZM32.3767 11.8125C32.3767 12.3927 32.1463 12.9491 31.736 13.3593C31.3258 13.7695 30.7694 14 30.1892 14C29.6091 14 29.0527 13.7695 28.6425 13.3593C28.2322 12.9491 28.0017 12.3927 28.0017 11.8125C28.0017 11.2323 28.2322 10.6759 28.6425 10.2657C29.0527 9.85547 29.6091 9.625 30.1892 9.625C30.7694 9.625 31.3258 9.85547 31.736 10.2657C32.1463 10.6759 32.3767 11.2323 32.3767 11.8125ZM21.0018 7C16.6723 7 15.9653 7.01225 13.951 7.1015C12.579 7.16625 11.6585 7.35 10.8045 7.6825C10.0898 7.94489 9.44372 8.36546 8.9145 8.91275C8.36676 9.44195 7.94562 10.088 7.6825 10.8027C7.35 11.6602 7.16625 12.579 7.10325 13.9493C7.01225 15.8813 7 16.5568 7 21C7 25.3312 7.01225 26.0365 7.1015 28.0507C7.16625 29.421 7.35 30.3433 7.68075 31.1955C7.97825 31.9568 8.32825 32.5045 8.90925 33.0855C9.499 33.6735 10.0468 34.0252 10.7993 34.3157C11.6637 34.65 12.5843 34.8355 13.9493 34.8985C15.8813 34.9895 16.5568 35 21 35C25.3312 35 26.0365 34.9877 28.0507 34.8985C29.4192 34.8337 30.3398 34.65 31.1955 34.3193C31.9095 34.0556 32.5554 33.6352 33.0855 33.089C33.6753 32.501 34.027 31.9532 34.3175 31.199C34.65 30.338 34.8355 29.4175 34.8985 28.049C34.9895 26.1187 35 25.4415 35 21C35 16.6705 34.9877 15.9635 34.8985 13.9493C34.8337 12.5808 34.6483 11.6567 34.3175 10.8027C34.0537 10.0888 33.6333 9.44297 33.0872 8.91275C32.5583 8.36473 31.9121 7.94354 31.1973 7.68075C30.3398 7.34825 29.4192 7.1645 28.0507 7.1015C26.1205 7.0105 25.445 7 21 7M21 3.5C25.7547 3.5 26.348 3.5175 28.2152 3.605C30.0772 3.6925 31.3477 3.98475 32.4625 4.41875C33.6175 4.86325 34.5905 5.46525 35.5635 6.4365C36.4534 7.31132 37.1419 8.36953 37.5812 9.5375C38.0135 10.6522 38.3075 11.9227 38.395 13.7865C38.4772 15.652 38.5 16.2452 38.5 21C38.5 25.7547 38.4825 26.348 38.395 28.2135C38.3075 30.0772 38.0135 31.346 37.5812 32.4625C37.1431 33.6311 36.4544 34.6895 35.5635 35.5635C34.6884 36.4531 33.6303 37.1416 32.4625 37.5812C31.3477 38.0135 30.0772 38.3075 28.2152 38.395C26.348 38.4772 25.7547 38.5 21 38.5C16.2452 38.5 15.652 38.4825 13.7847 38.395C11.9227 38.3075 10.654 38.0135 9.5375 37.5812C8.36907 37.1428 7.31067 36.4542 6.4365 35.5635C5.5465 34.6888 4.85793 33.6305 4.41875 32.4625C3.98475 31.3477 3.6925 30.0772 3.605 28.2135C3.521 26.348 3.5 25.7547 3.5 21C3.5 16.2452 3.5175 15.652 3.605 13.7865C3.6925 11.9227 3.98475 10.654 4.41875 9.5375C4.85666 8.36881 5.54541 7.31031 6.4365 6.4365C7.31092 5.54615 8.36925 4.85753 9.5375 4.41875C10.6522 3.98475 11.921 3.6925 13.7847 3.605C15.6537 3.52275 16.247 3.5 21.0018 3.5" fill="#1F2013"/>
</svg>
