<svg width="42" height="42" viewBox="0 0 42 42" fill="none" xmlns="http://www.w3.org/2000/svg">
<path d="M12.145 8.75001C12.1445 9.67827 11.7753 10.5683 11.1186 11.2244C10.4619 11.8804 9.5715 12.2487 8.64324 12.2483C7.71498 12.2478 6.82493 11.8786 6.16888 11.2219C5.51283 10.5652 5.14453 9.67477 5.14499 8.74651C5.14545 7.81825 5.51465 6.9282 6.17135 6.27215C6.82806 5.6161 7.71848 5.2478 8.64674 5.24826C9.575 5.24873 10.4651 5.61792 11.1211 6.27462C11.7772 6.93133 12.1455 7.82175 12.145 8.75001ZM12.25 14.84H5.24999V36.75H12.25V14.84ZM23.31 14.84H16.345V36.75H23.24V25.2525C23.24 18.8475 31.5875 18.2525 31.5875 25.2525V36.75H38.5V22.8725C38.5 12.075 26.145 12.4775 23.24 17.78L23.31 14.84Z" fill="#1F2013"/>
</svg>
