<svg width="52" height="52" viewBox="0 0 52 52" fill="none" xmlns="http://www.w3.org/2000/svg">
<circle cx="26.1111" cy="25.7803" r="25.3704" fill="#C2C294"/>
<path fill-rule="evenodd" clip-rule="evenodd" d="M27.9061 11.8882C27.3639 11.5688 26.7435 11.4001 26.1112 11.4001C25.4789 11.4001 24.8584 11.5688 24.3162 11.8882L14.1681 17.8643C13.6516 18.1685 13.2241 18.5988 12.9274 19.1133C12.6306 19.6277 12.4746 20.2089 12.4746 20.8001V34.331C12.4746 35.2391 12.8421 36.1099 13.4963 36.752C14.1506 37.3941 15.0378 37.7549 15.963 37.7549H36.2593C37.1845 37.7549 38.0718 37.3941 38.726 36.752C39.3802 36.1099 39.7478 35.2391 39.7478 34.331V20.8001C39.7478 20.2089 39.5918 19.6277 39.295 19.1133C38.9982 18.5988 38.5708 18.1685 38.0543 17.8643L27.9061 11.8882ZM20.3141 23.6064C20.212 23.5312 20.0956 23.477 19.9718 23.4469C19.848 23.4168 19.7193 23.4114 19.5933 23.4311C19.4673 23.4508 19.3467 23.4952 19.2385 23.5616C19.1304 23.628 19.0369 23.7151 18.9638 23.8176C18.8906 23.9202 18.8392 24.0361 18.8126 24.1586C18.786 24.281 18.7847 24.4075 18.8089 24.5304C18.8331 24.6533 18.8823 24.7702 18.9534 24.8741C19.0246 24.978 19.1163 25.0668 19.2231 25.1353L25.5657 29.4929C25.7256 29.6027 25.916 29.6616 26.1112 29.6616C26.3063 29.6616 26.4968 29.6027 26.6566 29.4929L32.9992 25.1353C33.1061 25.0668 33.1978 24.978 33.2689 24.8741C33.3401 24.7702 33.3892 24.6533 33.4134 24.5304C33.4376 24.4075 33.4364 24.281 33.4098 24.1586C33.3832 24.0361 33.3318 23.9202 33.2586 23.8176C33.1854 23.7151 33.092 23.628 32.9838 23.5616C32.8757 23.4952 32.755 23.4508 32.6291 23.4311C32.5031 23.4114 32.3744 23.4168 32.2506 23.4469C32.1267 23.477 32.0103 23.5312 31.9083 23.6064L26.1112 27.5892L20.3141 23.6064Z" fill="#1F2013"/>
</svg>
