<svg width="52" height="52" viewBox="0 0 52 52" fill="none" xmlns="http://www.w3.org/2000/svg">
<circle cx="25.8518" cy="25.7803" r="25.3704" fill="#C2C294"/>
<path d="M25.5699 25.1461C24.7444 25.1461 23.9527 24.812 23.369 24.2173C22.7853 23.6226 22.4574 22.8159 22.4574 21.9748C22.4574 21.1338 22.7853 20.3271 23.369 19.7324C23.9527 19.1377 24.7444 18.8035 25.5699 18.8035C26.3954 18.8035 27.1871 19.1377 27.7708 19.7324C28.3546 20.3271 28.6825 21.1338 28.6825 21.9748C28.6825 22.3913 28.602 22.8037 28.4456 23.1884C28.2891 23.5732 28.0599 23.9228 27.7708 24.2173C27.4818 24.5118 27.1387 24.7454 26.7611 24.9047C26.3834 25.0641 25.9787 25.1461 25.5699 25.1461ZM25.5699 13.0952C23.2585 13.0952 21.0418 14.0307 19.4074 15.696C17.7729 17.3613 16.8547 19.6198 16.8547 21.9748C16.8547 28.6346 25.5699 38.4656 25.5699 38.4656C25.5699 38.4656 34.2851 28.6346 34.2851 21.9748C34.2851 19.6198 33.3669 17.3613 31.7325 15.696C30.0981 14.0307 27.8813 13.0952 25.5699 13.0952Z" fill="#1F2013"/>
</svg>
