<svg width="51" height="52" viewBox="0 0 51 52" fill="none" xmlns="http://www.w3.org/2000/svg">
<circle cx="25.3704" cy="25.7803" r="25.3704" fill="#C2C294"/>
<path d="M41.4383 32.3958V37.4627C41.4385 37.8255 41.2672 38.1749 40.9591 38.4403C40.6509 38.7057 40.2288 38.8674 39.7779 38.8928C38.9978 38.9358 38.3604 38.9587 37.8676 38.9587C22.0908 38.9587 9.30249 28.6945 9.30249 16.0314C9.30249 15.6359 9.32927 15.1244 9.38462 14.4982C9.41626 14.1363 9.61774 13.7975 9.94843 13.5501C10.2791 13.3028 10.7144 13.1654 11.1664 13.1655H17.4793C17.7007 13.1653 17.9143 13.2312 18.0786 13.3504C18.243 13.4696 18.3462 13.6335 18.3684 13.8104C18.4094 14.1399 18.4469 14.4022 18.4826 14.6013C18.8374 16.5887 19.5645 18.5217 20.6393 20.3346C20.8089 20.6212 20.6982 20.9637 20.3768 21.1471L16.5241 23.3567C18.8798 27.7623 23.254 31.2731 28.7429 33.1639L31.4923 30.0773C31.6046 29.9512 31.7686 29.8607 31.9555 29.8217C32.1425 29.7827 32.3406 29.7976 32.5153 29.8638C34.7737 30.7249 37.1813 31.307 39.6565 31.5905C39.9047 31.6191 40.2314 31.6492 40.6385 31.6822C40.8585 31.7003 41.0623 31.7833 41.2104 31.9152C41.3585 32.047 41.4386 32.2183 41.4383 32.3958Z" fill="#1F2013"/>
</svg>
